<svg xmlns="http://www.w3.org/2000/svg" viewBox="0 0 64 64" width="64" height="64">
  <!-- ? -->
  <path d="M18 16 L14 4 M46 16 L50 4" fill="none" stroke="currentColor" stroke-width="1.5"/>
  <!-- ?? -->
  <path d="M24 20 L20 8 M40 20 L44 8" fill="none" stroke="currentColor" stroke-width="1.5"/>
  <!-- ???? -->
  <path d="M20 24 Q32 18 44 24 Q48 36 44 44 L20 44 Q16 36 20 24 Z" fill="none" stroke="currentColor" stroke-width="1.5"/>
  <!-- ?????????? -->
  <path d="M28 32 L34 34" fill="none" stroke="currentColor" stroke-width="1.5"/>
  <path d="M38 30 Q44 32 48 28" fill="none" stroke="currentColor" stroke-width="1.5"/>
  <!-- ?? -->
  <path d="M48 48 Q40 44 36 52 Q32 56 28 52" fill="none" stroke="currentColor" stroke-width="1.5"/>
  <path d="M28 52 L24 48" fill="none" stroke="currentColor" stroke-width="1"/>
  <!-- ???? -->
  <path d="M28 40 L36 40" fill="none" stroke="currentColor" stroke-width="1"/>
</svg>
