<svg xmlns="http://www.w3.org/2000/svg" viewBox="0 0 64 64" width="64" height="64">
  <!-- 角 -->
  <path d="M18 16 L14 4 M46 16 L50 4" fill="none" stroke="currentColor" stroke-width="1.5"/>
  <!-- 猫耳 -->
  <path d="M24 20 L20 8 M40 20 L44 8" fill="none" stroke="currentColor" stroke-width="1.5"/>
  <!-- 猫脸轮廓 -->
  <path d="M20 24 Q32 18 44 24 Q48 36 44 44 L20 44 Q16 36 20 24 Z" fill="none" stroke="currentColor" stroke-width="1.5"/>
  <!-- 圆睁的贪吃眼 -->
  <path d="M26 32 Q28 36 26 40 Q24 36 26 32" fill="none" stroke="currentColor" stroke-width="1.5"/>
  <path d="M38 32 Q40 36 38 40 Q36 36 38 32" fill="none" stroke="currentColor" stroke-width="1.5"/>
  <!-- 大口 -->
  <path d="M24 44 Q32 52 40 44" fill="none" stroke="currentColor" stroke-width="1.5"/>
  <!-- 酒杯 -->
  <path d="M48 36 L48 52 L56 52 L56 36" fill="none" stroke="currentColor" stroke-width="1.5"/>
  <path d="M46 36 L58 36" fill="none" stroke="currentColor" stroke-width="1"/>
</svg>
