<svg xmlns="http://www.w3.org/2000/svg" viewBox="0 0 64 64" width="64" height="64">
  <!-- ? -->
  <path d="M18 16 L14 4 M46 16 L50 4" fill="none" stroke="currentColor" stroke-width="1.5"/>
  <!-- ?? -->
  <path d="M24 20 L20 8 M40 20 L44 8" fill="none" stroke="currentColor" stroke-width="1.5"/>
  <!-- ???? -->
  <path d="M20 24 Q32 18 44 24 Q48 36 44 44 L20 44 Q16 36 20 24 Z" fill="none" stroke="currentColor" stroke-width="1.5"/>
  <!-- ?????????? -->
  <path d="M26 32 Q28 36 26 38 Q24 36 26 32" fill="none" stroke="currentColor" stroke-width="1.5"/>
  <path d="M38 32 Q40 36 38 38 Q36 36 38 32" fill="none" stroke="currentColor" stroke-width="1.5"/>
  <!-- ????? -->
  <path d="M18 44 L12 52 M46 44 L52 52" fill="none" stroke="currentColor" stroke-width="1.5"/>
  <!-- ?? -->
  <circle cx="20" cy="50" r="4" fill="none" stroke="currentColor" stroke-width="1.5"/>
  <circle cx="32" cy="48" r="5" fill="none" stroke="currentColor" stroke-width="1.5"/>
  <circle cx="44" cy="50" r="4" fill="none" stroke="currentColor" stroke-width="1.5"/>
</svg>
